<mxfile host="drawio-plugin" modified="2021-07-16T20:45:19.662Z" agent="5.0 (Windows NT 6.2; Win64; x64) AppleWebKit/537.36 (KHTML, like Gecko) Chrome/87.0.4280.141 Safari/537.36" etag="EL0klfimYpRfn5wC9UWE" version="14.7.4" type="embed" pages="2"><diagram id="23iRSUPoRavnBvh4doch" name="DAL"><mxGraphModel dx="1064" dy="431" grid="1" gridSize="10" guides="1" tooltips="1" connect="1" arrows="1" fold="1" page="1" pageScale="1" pageWidth="827" pageHeight="1169" math="0" shadow="0"><root><mxCell id="0"/><mxCell id="1" parent="0"/><mxCell id="2" value="NetworkComposition" style="shape=module;align=left;spacingLeft=20;align=center;verticalAlign=top;" parent="1" vertex="1"><mxGeometry x="191" y="560" width="160" height="50" as="geometry"/></mxCell><mxCell id="3" value="ReportStorage" style="shape=module;align=left;spacingLeft=20;align=center;verticalAlign=top;" parent="1" vertex="1"><mxGeometry x="650" y="870" width="160" height="50" as="geometry"/></mxCell><mxCell id="4" value="SensorManagement" style="shape=module;align=left;spacingLeft=20;align=center;verticalAlign=top;" parent="1" vertex="1"><mxGeometry x="191" y="1020" width="160" height="50" as="geometry"/></mxCell><mxCell id="11" value="" style="rounded=0;orthogonalLoop=1;jettySize=auto;html=1;endArrow=halfCircle;endFill=0;endSize=6;strokeWidth=1;entryX=0.501;entryY=0.5;entryDx=0;entryDy=0;entryPerimeter=0;edgeStyle=elbowEdgeStyle;elbow=vertical;" parent="1" source="13" target="30" edge="1"><mxGeometry relative="1" as="geometry"><mxPoint x="291" y="660" as="sourcePoint"/><mxPoint x="281" y="880" as="targetPoint"/></mxGeometry></mxCell><mxCell id="13" value="&lt;&lt;service&gt;&gt;&#10;SensorMeasurementService" style="shape=module;align=left;spacingLeft=20;align=center;verticalAlign=top;" parent="1" vertex="1"><mxGeometry x="10" y="780" width="190" height="50" as="geometry"/></mxCell><mxCell id="14" value="" style="rounded=0;orthogonalLoop=1;jettySize=auto;html=1;endArrow=none;endFill=0;" parent="1" source="2" target="16" edge="1"><mxGeometry relative="1" as="geometry"><mxPoint x="475" y="705" as="sourcePoint"/></mxGeometry></mxCell><mxCell id="15" value="" style="rounded=0;orthogonalLoop=1;jettySize=auto;html=1;endArrow=halfCircle;endFill=0;entryX=0.5;entryY=0.5;entryDx=0;entryDy=0;endSize=6;strokeWidth=1;edgeStyle=elbowEdgeStyle;elbow=vertical;" parent="1" source="13" target="16" edge="1"><mxGeometry relative="1" as="geometry"><mxPoint x="515" y="705" as="sourcePoint"/></mxGeometry></mxCell><mxCell id="16" value="&lt;br&gt;&lt;br&gt;INetworkCompositionRepository" style="ellipse;whiteSpace=wrap;html=1;fontFamily=Helvetica;fontSize=12;fontColor=#000000;align=center;strokeColor=#000000;fillColor=#ffffff;points=[];aspect=fixed;resizable=0;" parent="1" vertex="1"><mxGeometry x="266" y="680" width="10" height="10" as="geometry"/></mxCell><mxCell id="17" value="&lt;&lt;service&gt;&gt;&#10;ReportGeneratorService" style="shape=module;align=left;spacingLeft=20;align=center;verticalAlign=top;" parent="1" vertex="1"><mxGeometry x="351" y="780" width="190" height="50" as="geometry"/></mxCell><mxCell id="18" value="" style="rounded=0;orthogonalLoop=1;jettySize=auto;html=1;endArrow=none;endFill=0;" parent="1" source="3" target="20" edge="1"><mxGeometry relative="1" as="geometry"><mxPoint x="621" y="860" as="sourcePoint"/></mxGeometry></mxCell><mxCell id="19" value="" style="rounded=0;orthogonalLoop=1;jettySize=auto;html=1;endArrow=halfCircle;endFill=0;entryX=0.5;entryY=0.5;entryDx=0;entryDy=0;endSize=6;strokeWidth=1;" parent="1" source="17" target="20" edge="1"><mxGeometry relative="1" as="geometry"><mxPoint x="331" y="905" as="sourcePoint"/></mxGeometry></mxCell><mxCell id="20" value="&lt;br&gt;&lt;br&gt;IReportRepository" style="ellipse;whiteSpace=wrap;html=1;fontFamily=Helvetica;fontSize=12;fontColor=#000000;align=center;strokeColor=#000000;fillColor=#ffffff;points=[];aspect=fixed;resizable=0;" parent="1" vertex="1"><mxGeometry x="616" y="800" width="10" height="10" as="geometry"/></mxCell><mxCell id="26" value="" style="rounded=0;orthogonalLoop=1;jettySize=auto;html=1;endArrow=halfCircle;endFill=0;endSize=6;strokeWidth=1;entryX=0.5;entryY=0.5;entryDx=0;entryDy=0;entryPerimeter=0;edgeStyle=elbowEdgeStyle;elbow=vertical;" parent="1" source="17" target="16" edge="1"><mxGeometry relative="1" as="geometry"><mxPoint x="376" y="620" as="sourcePoint"/><mxPoint x="301" y="660" as="targetPoint"/></mxGeometry></mxCell><mxCell id="28" value="" style="rounded=0;orthogonalLoop=1;jettySize=auto;html=1;endArrow=none;endFill=0;" parent="1" source="4" target="30" edge="1"><mxGeometry relative="1" as="geometry"><mxPoint x="281" y="780" as="sourcePoint"/></mxGeometry></mxCell><mxCell id="29" value="" style="rounded=0;orthogonalLoop=1;jettySize=auto;html=1;endArrow=halfCircle;endFill=0;entryX=0.5;entryY=0.5;entryDx=0;entryDy=0;endSize=6;strokeWidth=1;edgeStyle=elbowEdgeStyle;elbow=vertical;" parent="1" source="17" target="30" edge="1"><mxGeometry relative="1" as="geometry"><mxPoint x="281" y="645" as="sourcePoint"/></mxGeometry></mxCell><mxCell id="30" value="&lt;br&gt;&lt;br&gt;ISensorStateRepository" style="ellipse;whiteSpace=wrap;html=1;fontFamily=Helvetica;fontSize=12;fontColor=#000000;align=center;strokeColor=#000000;fillColor=#ffffff;points=[];aspect=fixed;resizable=0;" parent="1" vertex="1"><mxGeometry x="266" y="930" width="10" height="10" as="geometry"/></mxCell><mxCell id="31" value="&lt;&lt;service&gt;&gt;&#10;ReportGeneratorService" style="shape=module;align=left;spacingLeft=20;align=center;verticalAlign=top;" parent="1" vertex="1"><mxGeometry x="526" y="650" width="190" height="50" as="geometry"/></mxCell><mxCell id="33" value="" style="rounded=0;orthogonalLoop=1;jettySize=auto;html=1;endArrow=halfCircle;endFill=0;endSize=6;strokeWidth=1;entryX=0.5;entryY=0.5;entryDx=0;entryDy=0;entryPerimeter=0;" parent="1" source="31" target="20" edge="1"><mxGeometry relative="1" as="geometry"><mxPoint x="586" y="945" as="sourcePoint"/><mxPoint x="621" y="795" as="targetPoint"/></mxGeometry></mxCell></root></mxGraphModel></diagram><diagram id="mLfUpzPoMTECgVYqEVE7" name="RepositoryExample"><mxGraphModel dx="1914" dy="431" grid="1" gridSize="10" guides="1" tooltips="1" connect="1" arrows="1" fold="1" page="1" pageScale="1" pageWidth="850" pageHeight="1100" math="0" shadow="0"><root><mxCell id="BYae6zLeGRzwwGX4UyP4-0"/><mxCell id="BYae6zLeGRzwwGX4UyP4-1" parent="BYae6zLeGRzwwGX4UyP4-0"/><mxCell id="BYae6zLeGRzwwGX4UyP4-15" value="Use" style="endArrow=open;endSize=12;dashed=1;html=1;" parent="BYae6zLeGRzwwGX4UyP4-1" source="BYae6zLeGRzwwGX4UyP4-5" target="BYae6zLeGRzwwGX4UyP4-13" edge="1"><mxGeometry width="160" relative="1" as="geometry"><mxPoint x="110" y="380" as="sourcePoint"/><mxPoint x="270" y="380" as="targetPoint"/></mxGeometry></mxCell><mxCell id="BYae6zLeGRzwwGX4UyP4-16" value="Use" style="endArrow=open;endSize=12;dashed=1;html=1;" parent="BYae6zLeGRzwwGX4UyP4-1" source="BYae6zLeGRzwwGX4UyP4-5" target="BYae6zLeGRzwwGX4UyP4-14" edge="1"><mxGeometry x="-0.3671" y="3" width="160" relative="1" as="geometry"><mxPoint x="210.76923076923072" y="340" as="sourcePoint"/><mxPoint x="229.23076923076917" y="420" as="targetPoint"/><mxPoint as="offset"/></mxGeometry></mxCell><mxCell id="BYae6zLeGRzwwGX4UyP4-25" value="ValueObjects" style="shape=umlFrame;whiteSpace=wrap;html=1;width=100;height=30;" parent="BYae6zLeGRzwwGX4UyP4-1" vertex="1"><mxGeometry x="245" y="340" width="300" height="280" as="geometry"/></mxCell><mxCell id="BYae6zLeGRzwwGX4UyP4-26" value="Entities" style="shape=umlFrame;whiteSpace=wrap;html=1;width=100;height=30;" parent="BYae6zLeGRzwwGX4UyP4-1" vertex="1"><mxGeometry x="-150" y="340" width="300" height="280" as="geometry"/></mxCell><mxCell id="BYae6zLeGRzwwGX4UyP4-2" value="«interface»&lt;br&gt;&lt;b&gt;IReportRepository&lt;/b&gt;" style="html=1;" parent="BYae6zLeGRzwwGX4UyP4-1" vertex="1"><mxGeometry x="120" y="30" width="130" height="50" as="geometry"/></mxCell><mxCell id="BYae6zLeGRzwwGX4UyP4-20" style="edgeStyle=none;orthogonalLoop=1;jettySize=auto;html=1;endArrow=open;endFill=1;endSize=12;" parent="BYae6zLeGRzwwGX4UyP4-1" source="BYae6zLeGRzwwGX4UyP4-5" target="BYae6zLeGRzwwGX4UyP4-17" edge="1"><mxGeometry relative="1" as="geometry"/></mxCell><mxCell id="BYae6zLeGRzwwGX4UyP4-21" style="edgeStyle=none;orthogonalLoop=1;jettySize=auto;html=1;endArrow=open;endFill=1;endSize=12;" parent="BYae6zLeGRzwwGX4UyP4-1" source="BYae6zLeGRzwwGX4UyP4-5" target="BYae6zLeGRzwwGX4UyP4-18" edge="1"><mxGeometry relative="1" as="geometry"/></mxCell><mxCell id="BYae6zLeGRzwwGX4UyP4-22" style="edgeStyle=none;orthogonalLoop=1;jettySize=auto;html=1;endArrow=open;endFill=1;endSize=12;" parent="BYae6zLeGRzwwGX4UyP4-1" source="BYae6zLeGRzwwGX4UyP4-5" target="BYae6zLeGRzwwGX4UyP4-19" edge="1"><mxGeometry relative="1" as="geometry"/></mxCell><mxCell id="BYae6zLeGRzwwGX4UyP4-5" value="«class»&lt;br&gt;&lt;b&gt;CassandraRepository&lt;/b&gt;" style="html=1;" parent="BYae6zLeGRzwwGX4UyP4-1" vertex="1"><mxGeometry x="110" y="170" width="150" height="50" as="geometry"/></mxCell><mxCell id="BYae6zLeGRzwwGX4UyP4-7" value="" style="endArrow=block;dashed=1;endFill=0;endSize=12;html=1;" parent="BYae6zLeGRzwwGX4UyP4-1" source="BYae6zLeGRzwwGX4UyP4-5" target="BYae6zLeGRzwwGX4UyP4-2" edge="1"><mxGeometry width="160" relative="1" as="geometry"><mxPoint x="70" y="380" as="sourcePoint"/><mxPoint x="230" y="380" as="targetPoint"/></mxGeometry></mxCell><mxCell id="BYae6zLeGRzwwGX4UyP4-9" value="" style="endArrow=open;endFill=1;endSize=12;html=1;" parent="BYae6zLeGRzwwGX4UyP4-1" source="BYae6zLeGRzwwGX4UyP4-10" target="BYae6zLeGRzwwGX4UyP4-2" edge="1"><mxGeometry width="160" relative="1" as="geometry"><mxPoint x="160" y="410" as="sourcePoint"/><mxPoint x="320" y="410" as="targetPoint"/></mxGeometry></mxCell><mxCell id="BYae6zLeGRzwwGX4UyP4-11" style="edgeStyle=none;orthogonalLoop=1;jettySize=auto;html=1;endArrow=open;endFill=1;endSize=12;" parent="BYae6zLeGRzwwGX4UyP4-1" source="BYae6zLeGRzwwGX4UyP4-10" target="BYae6zLeGRzwwGX4UyP4-5" edge="1"><mxGeometry relative="1" as="geometry"/></mxCell><mxCell id="BYae6zLeGRzwwGX4UyP4-10" value="«class»&lt;br&gt;&lt;b&gt;ReportRepositoryFabric&lt;br&gt;&lt;/b&gt;" style="html=1;" parent="BYae6zLeGRzwwGX4UyP4-1" vertex="1"><mxGeometry x="350" y="100" width="150" height="50" as="geometry"/></mxCell><mxCell id="BYae6zLeGRzwwGX4UyP4-13" value="«class»&lt;br&gt;&lt;b&gt;CassandraReport&lt;br&gt;&lt;/b&gt;" style="html=1;" parent="BYae6zLeGRzwwGX4UyP4-1" vertex="1"><mxGeometry x="320" y="430" width="150" height="50" as="geometry"/></mxCell><mxCell id="BYae6zLeGRzwwGX4UyP4-14" value="«class»&lt;br&gt;&lt;b&gt;CassandraSensor&lt;br&gt;&lt;/b&gt;" style="html=1;" parent="BYae6zLeGRzwwGX4UyP4-1" vertex="1"><mxGeometry x="320" y="510" width="150" height="50" as="geometry"/></mxCell><mxCell id="BYae6zLeGRzwwGX4UyP4-28" value="Use" style="edgeStyle=none;orthogonalLoop=1;jettySize=auto;html=1;dashed=1;endArrow=open;endSize=12;" parent="BYae6zLeGRzwwGX4UyP4-1" source="BYae6zLeGRzwwGX4UyP4-17" target="BYae6zLeGRzwwGX4UyP4-13" edge="1"><mxGeometry relative="1" as="geometry"/></mxCell><mxCell id="BYae6zLeGRzwwGX4UyP4-17" value="«class»&lt;br&gt;&lt;b&gt;CassandraReportEntity&lt;br&gt;&lt;/b&gt;" style="html=1;" parent="BYae6zLeGRzwwGX4UyP4-1" vertex="1"><mxGeometry x="-80" y="390" width="150" height="50" as="geometry"/></mxCell><mxCell id="BYae6zLeGRzwwGX4UyP4-29" value="Use" style="edgeStyle=none;orthogonalLoop=1;jettySize=auto;html=1;dashed=1;endArrow=open;endSize=12;" parent="BYae6zLeGRzwwGX4UyP4-1" source="BYae6zLeGRzwwGX4UyP4-18" target="BYae6zLeGRzwwGX4UyP4-14" edge="1"><mxGeometry relative="1" as="geometry"/></mxCell><mxCell id="BYae6zLeGRzwwGX4UyP4-18" value="«class»&lt;br&gt;&lt;b&gt;CassandraSectionEntity&lt;br&gt;&lt;/b&gt;" style="html=1;" parent="BYae6zLeGRzwwGX4UyP4-1" vertex="1"><mxGeometry x="-80" y="470" width="150" height="50" as="geometry"/></mxCell><mxCell id="BYae6zLeGRzwwGX4UyP4-30" value="Use" style="edgeStyle=none;orthogonalLoop=1;jettySize=auto;html=1;dashed=1;endArrow=open;endSize=12;" parent="BYae6zLeGRzwwGX4UyP4-1" source="BYae6zLeGRzwwGX4UyP4-19" target="BYae6zLeGRzwwGX4UyP4-14" edge="1"><mxGeometry relative="1" as="geometry"/></mxCell><mxCell id="BYae6zLeGRzwwGX4UyP4-19" value="«class»&lt;br&gt;&lt;b&gt;CassandraSensorEntity&lt;br&gt;&lt;/b&gt;" style="html=1;" parent="BYae6zLeGRzwwGX4UyP4-1" vertex="1"><mxGeometry x="-80" y="550" width="150" height="50" as="geometry"/></mxCell></root></mxGraphModel></diagram></mxfile>